<?xml version="1.0" standalone="no"?>
<!DOCTYPE svg PUBLIC "-//W3C//DTD SVG 20010904//EN"
 "http://www.w3.org/TR/2001/REC-SVG-20010904/DTD/svg10.dtd">
<svg version="1.0" xmlns="http://www.w3.org/2000/svg"
 width="2193.000000pt" height="2193.000000pt" viewBox="0 0 2193.000000 2193.000000"
 preserveAspectRatio="xMidYMid meet">
<metadata>
Created by potrace 1.14, written by Peter Selinger 2001-2017
</metadata>
<g transform="translate(0.000000,2193.000000) scale(0.100000,-0.100000)"
fill="#000000" stroke="none">
<path d="M9731 21883 c-53 -61 -115 -188 -134 -277 -22 -96 -16 -251 13 -336
49 -144 66 -167 375 -478 159 -162 338 -341 398 -400 59 -58 107 -110 107
-115 0 -11 -555 -567 -566 -567 -5 0 -164 155 -354 345 -190 190 -349 345
-353 345 -23 0 -118 -141 -147 -216 -80 -214 -49 -451 81 -628 16 -23 90 -102
164 -177 74 -74 135 -139 135 -143 0 -5 -777 -785 -1727 -1733 l-1728 -1725
45 -40 c71 -61 211 -126 310 -144 183 -31 371 14 514 125 28 22 728 718 1556
1546 l1504 1506 283 -283 c156 -156 283 -286 283 -289 0 -7 -5893 -5900 -5896
-5896 -1 1 -5 40 -9 87 -11 148 -44 313 -79 395 -49 114 -67 150 -119 227 -93
140 -214 250 -360 328 -109 58 -203 87 -311 96 l-61 6 45 -44 c176 -171 251
-316 251 -488 -1 -180 -102 -393 -301 -630 -88 -105 -132 -182 -159 -281 -67
-243 4 -490 189 -662 124 -115 271 -171 445 -170 159 0 280 42 408 140 l62 48
6369 0 6369 0 57 -46 c194 -156 462 -188 688 -84 225 104 366 314 379 565 9
159 -43 320 -142 440 -175 213 -235 307 -300 465 -38 92 -51 237 -30 335 23
106 117 254 226 354 59 55 60 56 30 56 -55 0 -176 -28 -256 -60 -382 -152
-628 -541 -647 -1022 l-3 -67 -2952 2952 -2952 2952 22 24 c81 88 541 541 550
541 6 0 693 -682 1526 -1517 1000 -1000 1536 -1529 1575 -1554 204 -134 486
-138 692 -12 67 42 124 87 124 100 0 4 -777 785 -1726 1734 l-1725 1725 133
135 c178 179 213 226 257 343 29 79 35 116 36 226 0 131 -19 213 -72 310 -34
62 -101 150 -115 150 -5 0 -166 -155 -355 -345 -190 -190 -348 -345 -352 -345
-3 0 -134 127 -289 283 l-283 283 378 380 c208 208 393 398 411 421 137 177
164 454 63 668 -33 70 -119 188 -131 180 -5 -3 -274 -271 -597 -595 l-588
-589 -596 596 -596 595 -42 -49z m1799 -2644 c0 -8 -560 -569 -569 -569 -3 0
-133 127 -289 283 l-283 283 288 287 287 288 283 -283 c155 -156 283 -286 283
-289z"/>
<path d="M8755 10699 c-77 -57 -74 -54 -136 -129 -57 -67 -89 -126 -123 -218
-31 -88 -40 -142 -41 -254 0 -51 -4 -88 -10 -89 -5 0 -18 -2 -28 -4 -21 -4
-142 28 -307 80 -115 37 -133 42 -180 51 -14 3 -41 9 -60 14 -97 25 -415 34
-535 16 -164 -25 -285 -61 -400 -119 -280 -140 -462 -393 -519 -722 -14 -79
-15 -340 -2 -395 3 -14 9 -38 11 -55 10 -57 48 -160 82 -225 50 -94 104 -164
202 -260 83 -82 276 -230 300 -230 6 0 11 -4 11 -10 0 -5 4 -10 9 -10 5 0 39
-18 75 -40 36 -22 141 -76 233 -121 497 -240 598 -293 703 -371 130 -97 202
-216 216 -360 3 -35 7 -65 9 -68 5 -9 -24 -174 -37 -211 -25 -68 -93 -172
-147 -225 -75 -73 -153 -112 -302 -151 -13 -3 -89 -7 -169 -8 -110 -2 -167 2
-237 16 -306 63 -546 268 -703 602 -42 90 -111 279 -124 340 -3 12 -13 56 -23
97 l-18 75 -78 0 -77 1 -1 -51 c0 -27 -1 -322 -1 -655 l0 -605 78 -3 79 -3 13
43 c28 90 89 147 152 140 38 -5 201 -48 325 -87 124 -39 258 -70 355 -82 127
-15 520 -6 551 13 4 2 22 6 40 8 19 3 70 15 113 26 353 94 653 354 773 669
106 282 87 636 -50 891 -75 141 -233 325 -342 400 -27 19 -261 141 -520 271
-592 297 -692 353 -792 445 -65 61 -111 139 -128 221 -11 50 -13 209 -4 259
15 79 65 170 130 235 113 111 263 161 462 154 249 -9 442 -97 628 -286 153
-156 272 -356 346 -583 l38 -115 35 4 c150 15 247 41 335 90 158 88 234 238
212 424 -15 132 -63 220 -248 461 -183 237 -218 401 -136 640 20 58 35 106 33
107 -2 2 -33 -20 -71 -48z"/>
<path d="M11600 10155 c-4 -11 -62 -153 -128 -315 -137 -338 -233 -573 -357
-880 -48 -118 -93 -228 -100 -245 -7 -16 -50 -122 -96 -235 -77 -194 -170
-422 -394 -975 -114 -283 -235 -558 -278 -635 -36 -65 -111 -141 -170 -172
-23 -12 -71 -32 -107 -43 l-65 -21 -1 -54 c0 -30 1 -60 4 -67 3 -8 140 -11
541 -11 l537 0 -1 63 c0 35 -3 66 -5 68 -3 3 -28 7 -57 11 -138 16 -268 58
-319 103 -61 54 -70 110 -34 221 30 91 89 263 100 287 4 11 30 79 56 150 26
72 51 134 55 139 8 8 1185 13 1193 5 10 -10 158 -376 189 -469 108 -316 71
-401 -188 -425 -99 -9 -170 -17 -172 -19 -3 -3 -6 -102 -4 -123 1 -8 218 -11
864 -11 l862 0 -2 56 c-1 32 -2 63 -2 70 -1 7 -16 12 -41 12 -70 0 -146 36
-210 100 -52 52 -72 84 -164 272 -102 208 -135 283 -413 943 -74 176 -141 334
-148 350 -16 36 -74 172 -150 355 -32 74 -63 149 -70 165 -8 17 -30 71 -51
120 -20 50 -44 108 -54 130 -10 22 -79 186 -155 365 -75 179 -144 342 -153
364 -9 21 -48 113 -87 204 l-70 165 -74 1 c-65 1 -74 -1 -81 -19z m-226 -1147
c8 -18 36 -85 62 -148 25 -63 52 -128 59 -145 8 -16 42 -97 76 -180 33 -82 66
-161 72 -175 6 -14 11 -27 12 -30 1 -3 7 -18 14 -34 6 -16 54 -133 107 -260
52 -127 99 -239 104 -248 6 -10 10 -20 10 -23 0 -3 -231 -5 -514 -5 l-514 0
40 103 c22 56 55 140 73 187 94 249 148 388 161 417 8 17 14 34 14 38 0 4 6
21 14 38 8 18 54 137 103 264 48 128 89 233 90 233 1 0 9 -15 17 -32z"/>
<path d="M3469 10075 c0 -14 -1 -38 -1 -55 0 -16 1 -36 1 -43 1 -9 18 -14 55
-16 54 -2 65 -3 165 -21 61 -11 149 -51 185 -85 37 -34 68 -100 81 -169 11
-64 13 -2695 2 -2767 -14 -86 -58 -157 -122 -194 -42 -25 -211 -68 -309 -80
-28 -3 -51 -7 -52 -8 -3 -3 -6 -67 -5 -104 l1 -32 930 0 930 0 1 22 c1 27 -2
111 -4 114 -1 0 -33 4 -72 8 -38 3 -102 13 -142 21 -128 26 -185 59 -232 134
-58 93 -56 28 -55 1510 0 1303 1 1367 19 1420 23 69 40 97 83 136 33 29 98 59
153 69 13 3 35 7 49 10 14 3 63 8 110 11 47 4 86 7 87 8 2 2 5 69 4 104 l-1
32 -930 0 -930 0 -1 -25z"/>
<path d="M14531 10036 c0 -36 3 -67 7 -69 4 -3 36 -8 72 -11 187 -19 289 -67
335 -157 42 -81 42 -84 43 -1475 1 -1333 -1 -1421 -34 -1498 -18 -43 -64 -91
-110 -114 -56 -28 -207 -64 -300 -71 -6 -1 -11 -29 -12 -70 l-1 -69 901 2 901
1 -1 63 c0 35 -2 65 -4 67 -3 3 -50 11 -124 21 -21 2 -57 9 -79 15 -22 6 -51
13 -64 16 -66 12 -147 75 -176 138 -35 75 -37 115 -38 762 -2 565 0 643 13
644 22 1 1232 1 1252 0 15 -1 16 -52 14 -663 -2 -745 1 -713 -77 -802 -54 -61
-127 -87 -349 -122 -19 -3 -38 -8 -42 -11 -5 -2 -8 -33 -8 -68 l0 -63 903 -1
903 0 1 68 1 69 -77 11 c-92 15 -213 46 -251 66 -42 22 -92 79 -115 132 -20
47 -20 64 -22 1438 -2 1350 -1 1392 17 1451 25 79 82 144 152 174 60 26 47 23
163 39 148 21 134 12 134 86 l-1 65 -904 0 -903 0 0 -68 1 -69 36 0 c37 0 105
-8 172 -20 96 -16 189 -82 228 -158 38 -77 41 -129 39 -725 l-2 -575 -637 0
c-420 0 -638 3 -639 10 0 5 0 269 0 585 0 591 2 634 40 708 54 105 197 168
393 173 43 1 47 4 50 28 2 14 1 45 -1 69 l-3 42 -898 0 -898 0 -1 -64z"/>
<path d="M4709 5676 c-2 -2 -33 -6 -69 -10 -36 -3 -74 -8 -85 -10 -11 -2 -42
-7 -69 -11 -195 -28 -455 -141 -631 -274 -180 -137 -320 -339 -351 -506 -12
-70 -11 -235 3 -289 37 -146 135 -269 260 -329 63 -29 76 -32 168 -32 91 0
106 3 168 32 119 56 207 165 237 291 13 54 15 169 5 212 -3 14 -8 35 -11 48
-2 13 -15 57 -29 99 -21 67 -22 80 -11 107 17 40 36 57 118 101 176 94 453 89
628 -13 98 -56 189 -166 230 -275 28 -75 31 -88 37 -192 12 -190 -70 -381
-254 -592 -88 -100 -125 -137 -313 -301 -614 -538 -791 -722 -948 -989 -104
-176 -208 -419 -238 -558 -1 -5 -6 -28 -12 -50 -6 -22 -14 -53 -17 -70 -3 -16
-8 -39 -10 -50 -28 -135 -50 -361 -46 -470 1 -20 7 -20 374 -19 l372 1 115 56
c198 96 358 140 510 140 114 0 204 -26 378 -110 246 -117 400 -150 557 -117
174 36 275 133 314 300 21 88 16 273 -9 339 -5 14 -8 25 -6 25 9 0 -58 160
-96 228 l-40 73 -43 -40 c-84 -78 -201 -119 -337 -119 -79 0 -164 13 -358 53
-102 21 -141 25 -210 20 -171 -12 -370 -62 -574 -144 -43 -18 -81 -30 -83 -27
-2 2 10 46 27 98 61 184 186 372 369 557 126 128 184 177 621 525 184 146 370
301 413 343 186 184 301 382 354 611 15 64 14 265 -3 364 -69 425 -354 761
-761 898 -81 27 -164 47 -273 65 -39 7 -365 16 -371 11z"/>
<path d="M12798 5675 c-2 -1 -37 -5 -78 -9 -41 -3 -86 -8 -100 -11 -14 -3 -38
-8 -55 -11 -486 -87 -910 -428 -975 -784 -38 -206 8 -393 127 -514 118 -121
258 -162 413 -119 144 40 260 163 295 316 11 49 12 163 2 217 -8 37 -34 131
-46 163 -19 49 -13 81 20 115 131 134 424 174 647 89 293 -111 425 -460 295
-779 -28 -71 -118 -212 -182 -288 -62 -74 -203 -215 -275 -275 -33 -28 -69
-59 -80 -70 -12 -11 -55 -49 -96 -85 -41 -36 -91 -79 -110 -97 -19 -17 -46
-41 -60 -53 -116 -100 -396 -371 -464 -450 -81 -93 -225 -315 -286 -440 -34
-71 -105 -250 -123 -310 -57 -193 -79 -291 -92 -420 -3 -30 -8 -66 -10 -80 -3
-14 -7 -77 -11 -140 l-5 -115 373 0 373 1 105 51 c237 115 468 169 607 141 27
-5 59 -12 73 -14 36 -7 144 -51 222 -90 287 -144 502 -168 681 -77 134 67 197
189 203 389 4 174 -53 361 -164 533 -1 3 -21 -14 -43 -36 -77 -78 -185 -117
-324 -118 -122 0 -153 4 -365 49 -124 26 -206 27 -345 6 -138 -21 -340 -80
-468 -138 l-65 -30 10 37 c71 270 247 518 566 793 79 69 345 284 546 443 21
17 86 68 145 114 278 221 444 450 510 706 44 171 25 448 -43 629 -158 419
-493 674 -986 752 -37 6 -356 14 -362 9z"/>
<path d="M8659 5656 c-2 -2 -33 -7 -68 -10 -53 -6 -98 -14 -216 -40 -65 -14
-205 -67 -288 -110 -215 -109 -374 -262 -470 -453 -28 -55 -72 -178 -82 -228
-11 -60 -17 -101 -21 -135 -5 -50 -6 -2201 -1 -2225 3 -11 7 -41 11 -66 12
-85 17 -104 38 -169 23 -72 72 -177 94 -201 8 -8 14 -19 14 -23 0 -14 66 -92
134 -159 162 -159 438 -294 676 -331 19 -3 46 -8 60 -11 117 -24 478 -25 610
-1 14 3 54 10 89 16 232 41 491 174 649 332 157 156 252 359 277 588 9 82 10
2174 1 2253 -32 284 -154 516 -361 687 -104 85 -290 178 -450 225 -74 21 -102
27 -190 41 -16 3 -41 8 -55 11 -29 6 -445 15 -451 9z m386 -472 c151 -48 246
-154 289 -321 8 -32 18 -85 22 -118 9 -78 9 -2283 0 -2355 -19 -162 -56 -251
-140 -335 -92 -93 -206 -133 -371 -130 -148 3 -211 19 -300 73 -111 68 -179
183 -206 350 -11 75 -16 2313 -4 2402 23 184 92 312 205 386 49 32 151 64 224
71 33 3 62 6 63 7 8 7 177 -17 218 -30z"/>
<path d="M17212 5588 c-11 -18 -38 -58 -59 -88 -22 -30 -140 -199 -263 -375
-123 -176 -252 -360 -287 -410 -34 -49 -88 -127 -120 -173 -32 -46 -73 -104
-91 -130 -117 -166 -400 -572 -416 -597 -11 -16 -23 -34 -28 -40 -5 -5 -42
-57 -82 -115 -40 -58 -165 -235 -277 -395 l-204 -290 -1 -262 -1 -263 896 -2
896 -3 0 -205 c0 -241 -8 -277 -77 -347 -50 -50 -146 -88 -251 -99 -34 -3 -65
-8 -68 -10 -4 -2 -7 -61 -7 -131 l-1 -128 807 0 c444 0 812 4 819 8 7 5 11 48
11 131 0 110 -2 125 -16 124 -35 -2 -128 15 -187 33 -85 26 -141 69 -169 129
-22 47 -23 62 -24 279 l-1 229 197 0 c108 0 209 1 223 1 l27 1 -1 279 0 279
-217 0 c-120 -1 -222 2 -227 5 -6 4 -10 479 -11 1284 0 703 -1 1286 -1 1296
-1 16 -26 17 -385 17 l-384 0 -20 -32z m-28 -1805 c-1 -417 -2 -760 -3 -763
-1 -6 -1060 -4 -1067 2 -2 3 129 194 293 424 163 230 312 441 331 468 18 26
64 90 100 142 37 51 129 181 205 288 76 108 140 196 140 196 1 0 2 -341 1
-757z"/>
<path d="M3718 726 c-89 -24 -173 -96 -216 -185 -25 -51 -27 -66 -27 -171 0
-110 2 -118 33 -181 67 -137 217 -204 390 -176 90 14 233 110 205 138 -7 7
-26 -1 -63 -29 -90 -69 -214 -86 -299 -43 -54 28 -106 90 -127 152 -24 71 -24
214 0 285 45 136 154 201 286 173 42 -9 63 -21 99 -58 27 -26 52 -64 60 -88
22 -66 41 -56 37 20 -2 34 -4 88 -5 120 -1 59 -13 72 -36 40 -11 -15 -19 -16
-76 -4 -93 19 -207 23 -261 7z"/>
<path d="M6056 708 c-7 -18 -64 -152 -126 -298 -129 -306 -148 -343 -189 -360
-51 -21 -25 -30 85 -30 105 0 131 9 72 26 -44 13 -46 38 -13 130 l27 74 140 0
139 0 16 -38 c57 -135 58 -155 2 -167 -66 -15 -22 -25 106 -25 74 0 135 3 135
8 -1 4 -15 16 -32 27 -26 16 -44 47 -94 160 -74 168 -62 140 -154 352 -41 95
-81 173 -87 173 -7 0 -19 -15 -27 -32z m58 -267 c31 -74 56 -137 56 -140 0 -4
-52 -6 -115 -6 l-116 0 6 24 c3 13 14 42 25 65 10 22 33 76 50 119 18 43 34
77 35 75 2 -2 28 -63 59 -137z"/>
<path d="M7810 727 c-51 -15 -135 -73 -170 -117 -61 -76 -75 -124 -74 -245 0
-95 3 -117 24 -160 48 -99 135 -164 252 -188 101 -22 192 -11 315 35 l53 19 0
133 c0 141 7 166 48 169 12 0 22 7 22 14 0 10 -32 13 -135 13 -74 0 -135 -4
-135 -8 0 -5 18 -14 39 -21 50 -14 54 -27 53 -165 0 -123 -2 -127 -77 -147
-44 -12 -144 -5 -178 12 -113 58 -166 161 -161 314 5 188 101 307 249 309 90
1 148 -31 203 -114 23 -36 46 -66 51 -68 7 -2 8 36 2 201 -1 31 -18 35 -36 10
-12 -15 -18 -16 -76 -3 -79 17 -222 21 -269 7z"/>
<path d="M10321 493 c-107 -254 -171 -394 -195 -426 -8 -10 -22 -20 -32 -21
-10 -2 -20 -8 -22 -14 -5 -15 204 -17 213 -2 3 6 -3 10 -13 10 -11 0 -30 8
-42 18 -25 20 -24 22 22 155 l13 37 141 0 140 0 33 -79 c18 -44 31 -87 29 -97
-2 -10 -19 -22 -41 -28 -22 -6 -35 -14 -31 -19 11 -10 274 -9 274 2 0 5 -14
14 -30 20 -26 8 -38 25 -69 93 -34 74 -51 113 -56 128 -1 3 -10 23 -19 45 -10
22 -27 60 -38 85 -11 25 -26 59 -33 75 -7 17 -31 71 -53 120 -59 135 -64 145
-77 145 -6 0 -58 -111 -114 -247z m151 -59 c26 -60 48 -116 50 -124 2 -11 -20
-14 -115 -14 -64 -1 -116 2 -115 6 2 3 28 67 58 141 44 110 57 132 65 118 6
-9 32 -66 57 -127z"/>
<path d="M14060 731 c0 -13 -194 -471 -245 -579 -37 -77 -50 -95 -75 -103 -56
-20 -31 -29 81 -29 84 0 110 3 106 13 -2 6 -10 11 -17 9 -7 -1 -23 4 -35 12
-19 12 -22 22 -18 48 3 18 8 38 12 43 4 6 15 31 25 58 l18 47 138 0 138 0 31
-74 c43 -103 41 -121 -11 -131 -12 -3 -26 -9 -32 -15 -7 -7 35 -10 132 -10 78
0 142 4 142 9 0 5 -13 14 -30 21 -31 13 -41 31 -110 190 -67 154 -182 416
-201 458 -10 23 -26 42 -34 42 -8 0 -15 -4 -15 -9z m55 -298 c30 -73 55 -134
55 -136 0 -2 -232 -1 -237 2 -1 0 23 58 53 128 30 70 54 134 54 142 0 30 20
-7 75 -136z"/>
<path d="M16195 558 c-42 -101 -85 -201 -95 -223 -9 -22 -37 -84 -60 -139 -43
-99 -82 -157 -102 -153 -6 1 -13 -4 -15 -10 -4 -10 21 -13 101 -13 58 0 106 4
106 8 0 4 -16 14 -35 21 -43 15 -44 30 -8 128 l28 74 140 -3 140 -3 34 -82
c37 -91 35 -106 -20 -118 -66 -15 -22 -25 105 -25 135 0 172 9 117 28 -16 6
-36 21 -44 34 -8 13 -77 166 -153 341 -76 174 -143 317 -150 317 -6 0 -46 -82
-89 -182z m133 -145 c23 -56 42 -106 42 -110 0 -5 -52 -8 -115 -8 -63 0 -115
4 -115 8 0 5 10 32 23 60 13 29 39 89 57 135 l34 83 16 -33 c8 -18 35 -79 58
-135z"/>
<path d="M4310 714 c0 -9 11 -14 28 -14 17 0 37 -9 48 -21 17 -19 19 -41 20
-297 0 -290 -5 -330 -44 -334 -9 0 -23 -2 -31 -2 -8 -1 -16 -7 -19 -14 -3 -9
31 -12 147 -12 83 0 151 4 151 8 0 5 -18 14 -39 21 -25 7 -42 19 -46 32 -6 17
-9 155 -6 244 l1 30 158 0 157 0 0 -137 c-1 -151 -5 -163 -61 -174 -75 -14
-26 -24 117 -24 116 0 150 3 147 13 -3 6 -9 12 -14 12 -31 2 -64 18 -69 34 -4
14 -9 478 -5 569 0 21 39 52 65 52 14 0 25 6 25 13 0 11 -30 13 -142 13 -145
-1 -176 -10 -110 -33 18 -6 36 -14 40 -18 4 -3 7 -66 7 -138 l0 -132 -157 0
c-151 0 -158 1 -159 20 -1 11 -1 69 -1 129 0 102 1 111 22 128 12 10 33 18 46
18 13 0 24 6 24 13 0 11 -32 14 -150 14 -120 0 -150 -2 -150 -13z"/>
<path d="M5225 719 c-4 -5 -4 -10 -1 -10 3 -1 11 -3 16 -4 6 -1 19 -3 30 -4
11 0 29 -10 39 -20 18 -18 19 -37 19 -305 -1 -320 -1 -320 -69 -331 -85 -14
-18 -25 137 -23 137 3 155 5 129 15 -16 7 -41 19 -55 26 l-25 13 -3 279 c-3
303 1 331 47 341 42 9 51 13 51 22 0 11 -308 13 -315 1z"/>
<path d="M6630 713 c0 -7 11 -13 24 -13 13 0 35 -12 50 -27 l27 -27 -3 -278
c-3 -262 -4 -279 -23 -297 -11 -11 -31 -22 -44 -24 -14 -2 -27 -9 -29 -15 -3
-9 31 -12 122 -12 69 0 126 4 126 8 0 5 -18 14 -39 21 -32 9 -42 18 -51 46
-12 37 -20 496 -9 489 4 -2 109 -132 235 -289 126 -157 234 -285 240 -285 9 0
12 77 13 310 0 345 2 357 61 376 65 21 42 30 -77 31 -147 1 -183 -11 -91 -31
48 -11 53 -34 55 -258 1 -115 -2 -208 -6 -208 -4 0 -22 20 -40 45 -17 24 -37
50 -44 57 -7 7 -50 60 -96 118 -45 58 -90 114 -99 125 -10 11 -33 40 -52 65
-72 93 -62 87 -161 87 -68 0 -89 -3 -89 -14z"/>
<path d="M8980 713 c0 -8 12 -13 30 -13 17 0 39 -9 50 -20 20 -20 21 -32 20
-300 -1 -274 -2 -281 -23 -305 -12 -14 -33 -26 -46 -28 -14 -2 -27 -9 -29 -15
-3 -9 31 -12 122 -12 79 0 126 4 126 10 0 6 -14 13 -30 17 -17 3 -39 17 -50
31 -19 23 -20 41 -20 271 1 276 -5 266 64 111 16 -36 44 -96 61 -135 31 -66
59 -129 115 -253 13 -29 28 -51 34 -49 6 2 69 135 140 295 72 160 132 289 135
287 2 -3 4 -120 4 -261 -1 -296 0 -294 -95 -303 -5 -1 -8 -5 -8 -11 0 -6 59
-10 158 -10 140 1 155 2 138 15 -11 8 -27 15 -37 15 -41 0 -44 21 -46 309 -2
315 2 337 59 343 18 2 33 8 33 13 0 6 -43 11 -106 11 l-107 2 -30 -67 c-16
-36 -67 -151 -112 -256 -45 -104 -85 -193 -89 -198 -4 -4 -27 37 -52 90 -24
54 -78 172 -119 263 l-76 165 -107 1 c-82 0 -107 -3 -107 -13z"/>
<path d="M10986 722 c-11 -11 7 -22 35 -22 16 0 38 -9 49 -20 19 -19 20 -33
20 -289 0 -148 -3 -282 -6 -299 -6 -32 -34 -50 -71 -47 -12 1 -24 -4 -27 -12
-4 -10 25 -13 154 -13 95 0 161 4 165 10 3 6 0 10 -7 11 -35 2 -64 11 -78 25
-12 12 -15 61 -18 291 -3 301 1 329 47 339 43 9 51 13 51 22 0 9 -306 13 -314
4z"/>
<path d="M12016 721 c-1 -3 -4 -45 -5 -93 -2 -69 0 -88 11 -88 7 0 19 20 27
44 20 69 46 86 135 93 l76 6 1 -29 c4 -115 -1 -558 -6 -574 -4 -13 -21 -24
-51 -31 -24 -6 -44 -15 -44 -20 0 -5 73 -9 162 -9 112 0 159 3 152 10 -6 6
-24 13 -40 16 -59 11 -59 7 -61 336 l-2 301 74 -5 c91 -6 120 -23 136 -80 14
-48 25 -65 36 -55 7 8 6 164 -2 176 -5 9 -594 11 -599 2z"/>
<path d="M12806 723 c-11 -11 6 -23 30 -23 13 0 33 -9 44 -20 18 -18 19 -34
19 -300 0 -179 -4 -289 -10 -304 -8 -17 -22 -26 -50 -30 -21 -3 -39 -11 -39
-16 0 -6 60 -10 155 -10 85 0 155 4 155 8 0 4 -20 13 -44 20 -42 11 -45 14
-51 54 -3 24 -5 90 -3 148 l3 105 148 0 c81 0 153 -2 159 -6 14 -9 7 -274 -9
-290 -6 -6 -25 -12 -42 -13 -18 0 -31 -6 -31 -13 0 -10 36 -13 150 -13 147 0
187 9 113 27 -62 14 -64 23 -61 340 2 197 6 286 15 294 6 6 25 14 43 18 17 3
32 11 33 16 3 13 -290 18 -298 5 -3 -5 7 -12 22 -16 15 -3 38 -13 51 -20 21
-14 22 -20 22 -147 l0 -132 -160 0 -160 0 0 117 c0 142 7 165 54 173 19 4 37
12 39 19 4 9 -32 12 -143 13 -82 0 -151 -2 -154 -4z"/>
<path d="M14630 714 c0 -9 12 -14 33 -14 67 0 68 -5 68 -318 1 -154 -2 -290
-6 -301 -4 -15 -21 -25 -51 -33 -24 -7 -44 -16 -44 -20 0 -4 72 -8 161 -8 124
0 160 3 156 13 -2 6 -10 11 -16 9 -22 -5 -81 27 -82 45 -6 88 -3 554 4 576 8
25 18 31 70 39 10 2 19 8 20 13 1 6 -56 10 -155 11 -127 1 -158 -1 -158 -12z"/>
<path d="M15123 716 c2 -6 16 -12 30 -14 54 -7 57 -24 58 -325 1 -151 -2 -285
-6 -296 -4 -13 -21 -25 -46 -32 -21 -7 -39 -16 -39 -21 0 -10 580 -11 581 0 1
14 7 38 27 110 17 59 18 72 7 72 -8 0 -21 -13 -30 -30 -44 -86 -103 -111 -258
-114 -81 -1 -101 2 -110 15 -9 12 -12 91 -11 285 1 148 2 277 3 286 2 26 30
48 62 48 17 0 29 5 29 13 0 11 -32 14 -150 14 -109 1 -150 -2 -147 -11z"/>
<path d="M16830 713 c0 -7 11 -13 24 -13 12 0 35 -11 50 -25 l27 -25 -3 -279
c-3 -308 -4 -312 -69 -325 -16 -3 -29 -10 -29 -16 0 -6 46 -10 125 -10 93 0
125 3 125 13 0 6 -12 13 -26 13 -34 2 -62 30 -69 68 -3 17 -5 130 -3 250 l3
220 79 -100 c44 -54 82 -101 85 -104 3 -3 22 -25 41 -50 19 -25 40 -52 47 -60
7 -8 56 -69 109 -135 53 -66 102 -121 108 -123 10 -2 13 67 14 300 1 167 4
314 6 327 7 33 24 50 59 59 17 4 32 13 34 18 2 7 -39 10 -118 10 -88 -1 -123
-4 -126 -13 -3 -8 5 -13 20 -13 14 0 35 -8 48 -19 23 -18 23 -22 26 -240 3
-240 5 -232 -49 -159 -15 20 -33 42 -41 50 -7 7 -64 78 -127 158 -207 262
-179 238 -284 238 -65 -1 -86 -4 -86 -15z"/>
<path d="M17743 717 c2 -6 18 -14 36 -18 18 -4 38 -12 44 -18 9 -9 12 -97 12
-306 0 -336 3 -325 -87 -334 -5 -1 -8 -6 -8 -11 0 -14 370 -12 431 1 58 13
139 51 174 80 93 81 133 226 101 369 -22 95 -113 185 -223 221 -59 18 -95 22
-276 24 -151 2 -207 0 -204 -8z m382 -48 c156 -41 242 -197 206 -378 -24 -124
-81 -185 -201 -216 -72 -18 -154 -19 -169 -1 -10 12 -13 85 -14 302 -1 328 -5
315 86 307 28 -2 70 -9 92 -14z"/>
</g>
</svg>
